<svg width="95" height="95" viewBox="0 0 95 95" fill="none" xmlns="http://www.w3.org/2000/svg">
<g clip-path="url(#clip0_1448_28478)">
<path d="M50.5197 31.2934C29.4115 27.2076 11.4913 31.2083 9.7176 40.3716C7.94391 49.5348 23.0769 59.9335 44.1851 64.0193C65.2933 68.1052 83.2134 64.1044 84.9871 54.9412C86.7608 45.7779 71.6279 35.3793 50.5197 31.2934ZM44.8185 60.7467C24.2012 56.7559 11.7549 47.3866 12.9902 41.005C14.2254 34.6235 29.2689 30.5752 49.8862 34.566C70.5035 38.5568 82.9498 47.9262 81.7145 54.3077C80.4793 60.6893 65.4358 64.7375 44.8185 60.7467Z" fill="#80DEEA"/>
<path d="M39.314 11.1298C37.6777 10.8131 36.3054 10.887 34.838 11.4517C25.9333 14.4814 24.6081 32.7288 31.533 53.0823C34.7949 62.5412 39.4555 70.9128 44.4594 76.6347C49.8907 82.7788 55.3327 85.36 59.7032 83.8294C64.2374 82.3304 66.8186 76.8884 67.3888 68.6806C67.864 60.9636 66.3017 51.4941 63.0398 42.0352C59.778 32.5763 55.1173 24.2047 50.1135 18.4828C46.4926 14.3867 42.7502 11.795 39.314 11.1298ZM56.0242 80.9104C53.4062 80.4036 50.255 78.2658 47.0616 74.592C42.3534 69.0971 37.9566 61.1161 34.795 52.0161C27.9388 32.1851 29.9342 16.6139 35.9358 14.5502C39.0342 13.4523 43.3308 15.8118 47.6432 20.7208C52.3514 26.2157 56.7481 34.1967 59.9097 43.2967C63.0714 52.3967 64.565 61.3435 64.1848 68.5697C63.736 75.2732 61.8674 79.6648 58.769 80.7626C57.8875 80.9315 57.006 81.1004 56.0242 80.9104Z" fill="#80DEEA"/>
<path d="M68.6037 16.7993C60.4222 15.2157 46.7088 22.9166 34.8639 36.751C20.6806 53.0188 15.1011 70.4426 22.2321 76.5762C29.3631 82.7099 45.8212 74.8612 60.0045 58.5934C66.5604 51.0349 71.5433 42.8324 73.9821 35.4954C76.6794 27.6993 76.12 21.8192 72.5044 18.5729C71.322 17.665 70.0764 17.0844 68.6037 16.7993ZM24.4068 74.1113C19.6088 69.9571 23.5679 54.766 37.3289 38.9258C51.0899 23.0856 65.5 17.0473 70.298 21.2015C72.763 23.3762 72.8579 28.1479 70.7728 34.5347C68.4291 41.3807 63.7048 49.1241 57.3759 56.387C43.6149 72.2272 29.2048 78.2654 24.4068 74.1113Z" fill="#80DEEA"/>
<path d="M48.6193 41.1112C52.2341 41.8109 54.5973 45.3085 53.8976 48.9233C53.1979 52.5381 49.7003 54.9013 46.0855 54.2016C42.4707 53.5019 40.1075 50.0043 40.8072 46.3895C41.5069 42.7747 45.0045 40.4115 48.6193 41.1112Z" fill="#80DEEA"/>
</g>
<defs>
<clipPath id="clip0_1448_28478">
<rect width="80" height="80" fill="white" transform="matrix(0.981777 0.190038 0.190038 -0.981777 0.479797 79.3259)"/>
</clipPath>
</defs>
</svg>
