<svg width="181" height="162" viewBox="0 0 181 162" fill="none" xmlns="http://www.w3.org/2000/svg">
<path d="M73.665 1.43114C73.665 2.22404 78.2651 11.7389 83.8874 22.311C89.5097 32.8831 94.1098 42.1337 94.1098 42.9266C94.1098 45.5697 72.6428 55.6132 71.8761 53.4987C69.5761 46.0983 46.3202 9.09592 43.7646 8.0387C38.1423 6.18858 40.1867 15.4392 50.6647 38.4335C56.287 50.8557 60.887 61.4278 60.887 61.9564C60.887 62.485 49.1313 71.207 34.82 80.9862C20.2531 91.0297 6.19732 101.866 3.64172 105.038C-1.21391 110.588 -1.21391 110.588 3.64172 110.588C6.45288 110.588 22.2976 103.452 38.6534 94.7299L68.5538 78.8718L75.4539 93.4084L82.6096 108.209L73.665 115.346C51.6869 133.054 35.3311 148.119 35.3311 150.233C35.3311 155.52 43.509 152.612 65.9982 139.397C78.7762 131.732 89.5097 126.182 90.0208 126.711C90.5319 127.239 94.6209 135.168 99.221 144.155C113.532 172.435 120.944 165.299 108.166 135.433C104.588 127.239 101.777 120.103 101.777 119.574C101.777 118.253 129.888 100.016 131.933 100.016C132.955 100.28 137.299 106.359 141.388 114.024C148.799 127.239 158 133.582 158 125.653C158 123.539 154.422 115.081 150.077 106.624C145.733 98.4302 142.666 91.294 143.177 91.0297C143.688 90.5011 150.333 85.4793 158.255 79.4004C174.611 67.2425 181 60.8992 181 57.4633C181 52.4415 169.755 55.3489 152.377 64.8637L134.488 74.6429L129.633 68.2997C126.821 64.5994 122.988 58.5205 120.944 54.556C117.11 47.6841 117.366 47.1555 128.355 39.4907C134.488 34.9976 140.11 29.7115 140.877 27.3328C143.177 21.5181 130.655 22.0467 120.177 28.6543C109.188 35.5262 105.866 35.2619 100.499 27.0685C90.2764 10.946 73.665 -4.91212 73.665 1.43114ZM113.277 67.5068C116.855 73.0571 119.666 78.8718 119.666 80.7219C119.666 83.8935 99.7321 97.373 95.132 97.373C92.0653 97.373 80.5651 73.5857 82.354 71.7356C86.443 67.2425 101.01 57.9919 103.565 57.7276C105.354 57.7276 109.699 62.2207 113.277 67.5068Z" fill="#B0FC04"/>
</svg>
