<svg width="169" height="114" viewBox="0 0 169 114" fill="none" xmlns="http://www.w3.org/2000/svg">
<path d="M5.55819 63.1038C7.57231 72.4172 9.10045 81.8994 12.5791 90.8566C14.161 94.9301 15.7644 99.0368 17.7612 102.979C19.2422 105.903 20.6273 112.085 25.1567 113.427C39.2204 117.594 53.3539 79.3714 56.5876 73.069C61.2213 64.0386 65.3883 54.9052 70.1658 45.8709C70.9579 44.373 74.5567 34.7672 76.7854 34.0567C78.6483 33.4628 80.724 38.8679 81.405 40.0702C85.9812 56.888 95.3239 77.298 115.958 71.2673C128.584 67.5773 135.462 52.6248 140.281 44.9758C143.119 40.4703 145.831 35.9416 148.441 31.3928C150.486 27.8284 151.994 22.0061 156.449 19.2545C160.727 23.976 147.901 44.4145 161.537 43.7607C171.381 43.2885 168.225 32.6907 168.436 28.8365C168.721 23.6266 168.849 18.2034 168.725 12.9158C168.612 8.06987 169.402 -0.922184 159.279 0.313784C151.622 1.24863 141.468 6.00349 134.188 8.64052C130.297 10.0496 111.322 16.2147 119.807 19.5073C126.864 22.2457 139.797 13.8648 147.306 13.8867C138.946 23.7624 133.514 34.417 126.943 44.718C123.886 49.5089 120.867 54.5491 116.785 59.0611C111.586 64.8081 109.024 61.8324 105.595 57.6705C99.6848 50.4955 96.5893 42.1264 92.131 34.4286C90.0358 30.8109 87.3047 24.6691 81.7394 23.1174C74.9828 21.2334 66.5986 25.5628 63.6156 29.6082C56.3158 39.5083 50.3799 51.6299 45.5869 61.9517C40.1972 73.5578 37.2646 80.564 33.001 93.6707C32.6569 94.3072 30.2469 99.3125 28.979 99.646C27.122 100.134 29.4872 100.869 29.1425 100.052C27.3646 95.8346 23.8753 91.3866 22.21 87.1602C18.4054 77.5039 14.9449 66.8614 12.6111 56.7987C11.1876 50.6615 9.11263 44.7049 7.6887 38.5611C7.26378 36.728 7.13274 25.7666 2.37995 28.4301C-1.20086 30.4368 1.12968 41.4403 1.42538 43.7874C2.24552 50.2976 4.17424 56.7043 5.55819 63.1038Z" fill="#B0FC04"/>
</svg>
