<svg width="153" height="171" viewBox="0 0 153 171" fill="none" xmlns="http://www.w3.org/2000/svg">
<path d="M122.413 156.046C119.584 148.12 113.548 150.724 108.009 152.557C102.775 154.289 97.6536 156.495 91.5578 156.89C97.3941 151.265 103.238 145.649 109.065 140.013C124.284 125.294 141.973 110.395 149 89.9743C166.23 39.8999 121.523 -9.74887 72.5156 2.68281C41.9673 10.432 19.1845 30.9849 1.42546 58.1548C0.183016 60.0555 -0.205913 62.5288 0.868001 65.9524C2.97821 63.5271 3.49108 68.4633 5.50029 65.9524C20.2138 47.566 39.9993 29.5472 61.0003 20.0002C74.433 13.8933 85.5878 10.8137 99.0878 15.0002C129.218 24.3431 145.26 58.6739 131.361 89.9743C121.639 111.869 105.52 124.141 87.5003 140.013C86.3671 129.274 102 118.5 89.5 111.5C83.5 121.5 81.0717 129.899 78.1785 138C75.5 145.5 72.7503 149.827 70.0004 156.89C67.0884 164.37 70.9688 170.82 78.1785 170.767C85.0812 170.717 92.3101 168.835 99.0878 166.521C106.639 163.943 113.843 159.969 122.413 156.046Z" fill="#B0FC04"/>
</svg>
